<svg xmlns="http://www.w3.org/2000/svg" viewBox="0 0 300 80.7" enable-background="new 0 0 300 80.7"><path fill-rule="evenodd" clip-rule="evenodd" d="M45 42.9c0-.9-.5-1.7-1.2-2.1l-20.1-11.6c-.3-.2-.7-.3-1.1-.3h-.2c-.4 0-.8.1-1.1.3l-20.1 11.6c-.7.4-1.2 1.2-1.2 2.1v31.1c0 .4.2.8.6 1 .4.2.8.2 1.2 0l11.9-6.8c.8-.4 1.2-1.2 1.2-2.1v-14.5c0-.9.5-1.7 1.2-2.1l5.1-2.9c.4-.2.8-.3 1.2-.3.4 0 .8.1 1.2.3l5.1 2.9c.8.4 1.2 1.2 1.2 2.1v14.5c0 .9.5 1.7 1.2 2.1l11.9 6.8c.4.2.8.2 1.2 0 .4-.2.6-.6.6-1l.2-31.1z"/><path fill-rule="evenodd" clip-rule="evenodd" d="M152.2.2c-.4-.2-.8-.2-1.2 0-.4.2-.6.6-.6 1v30.8c0 .3-.2.6-.4.7-.3.2-.6.2-.8 0l-5-2.9c-.7-.4-1.7-.4-2.4 0l-20.1 11.6c-.8.4-1.2 1.2-1.2 2.1v23.2c0 .9.5 1.7 1.2 2.1l20.1 11.6c.8.4 1.7.4 2.4 0l20.1-11.6c.7-.4 1.2-1.2 1.2-2.1v-57.8c0-.9-.5-1.7-1.2-2.1l-12.1-6.6zm-1.9 58.9c0 .2-.1.4-.3.5l-6.9 4c-.2.1-.4.1-.6 0l-6.9-4c-.2-.1-.3-.3-.3-.5v-8c0-.2.1-.4.3-.5l6.9-4c.2-.1.4-.1.6 0l6.9 4c.2.1.3.3.3.5v8z"/><path fill-rule="evenodd" clip-rule="evenodd" d="M224 50.9c.7-.4 1.2-1.2 1.2-2.1v-5.6c0-.9-.5-1.7-1.2-2.1l-20-11.6c-.8-.4-1.7-.4-2.4 0l-20.1 11.6c-.7.4-1.2 1.2-1.2 2.1v23.2c0 .9.5 1.7 1.2 2.1l19.9 11.4c.7.4 1.6.4 2.4 0l12.1-6.7c.4-.2.6-.6.6-1.1 0-.4-.2-.8-.6-1.1l-20.2-11.6c-.4-.2-.6-.6-.6-1.1v-7.3c0-.4.2-.8.6-1.1l6.3-3.6c.4-.2.8-.2 1.2 0l6.3 3.6c.4.2.6.6.6 1.1v5.7c0 .4.2.8.6 1 .4.2.8.2 1.2 0l12.1-6.8z"/><path fill-rule="evenodd" clip-rule="evenodd" fill="#80BD01" d="M81.5 29.4c.7-.4 1.7-.4 2.4 0l20.1 11.6c.8.4 1.2 1.2 1.2 2.1v23.2c0 .9-.5 1.7-1.2 2.1l-20.1 11.6c-.8.4-1.7.4-2.4 0l-20.1-11.6c-.7-.4-1.2-1.2-1.2-2.1v-23.2c0-.9.5-1.7 1.2-2.1l20.1-11.6z"/><path fill="#80BD01" d="M263 80.3c-.7 0-1.4-.2-2-.5l-6.3-3.7c-.9-.5-.5-.7-.2-.8 1.3-.4 1.5-.5 2.9-1.3.1-.1.3 0 .5 0l4.9 2.9c.2.1.4.1.6 0l18.9-10.9c.2-.1.3-.3.3-.5v-21.9c0-.2-.1-.4-.3-.5l-18.9-10.9c-.2-.1-.4-.1-.6 0l-19 10.8c-.2.1-.3.3-.3.5v21.8c0 .2.1.4.3.5l5.2 3c2.8 1.4 4.5-.2 4.5-1.9v-21.5c0-.3.2-.5.6-.5h2.4c.3 0 .5.2.5.5v21.6c0 3.8-2 5.9-5.6 5.9-1.1 0-2 0-4.4-1.2l-5-2.9c-1.2-.7-2-2-2-3.5v-21.7c0-1.4.8-2.7 2-3.5l19-10.9c1.2-.7 2.8-.7 4 0l18.9 10.9c1.2.7 2 2 2 3.5v21.8c0 1.4-.8 2.7-2 3.5l-18.9 10.9c-.7.3-1.3.5-2 .5z"/><path fill="#80BD01" d="M268.8 65.3c-8.3 0-10-3.8-10-7 0-.3.2-.5.5-.5h2.4c.3 0 .5.2.5.5.4 2.5 1.5 3.7 6.5 3.7 4 0 5.7-.9 5.7-3 0-1.2-.5-2.1-6.7-2.7-5.2-.5-8.4-1.7-8.4-5.8 0-3.8 3.2-6.1 8.6-6.1 6.1 0 9.1 2.1 9.4 6.6 0 .2 0 .3-.1.4-.1.1-.2.2-.4.2h-2.5c-.3 0-.5-.2-.5-.4-.6-2.6-2-3.5-5.9-3.5-4.4 0-4.9 1.5-4.9 2.7 0 1.4.6 1.8 6.5 2.6 5.8.8 8.6 1.9 8.6 5.9.1 4-3.3 6.4-9.3 6.4z"/><g fill="#80BD01"><path d="M294.9 29.2v.6h-1.6v4.2h-.6v-4.2h-1.6v-.6h3.8zM295.5 29.2h.9l1.4 4 1.3-4h.9v4.7h-.6v-4l-1.3 4h-.6l-1.4-4v3.9h-.6v-4.6z"/></g><path fill-rule="evenodd" clip-rule="evenodd" fill="#80BD01" d="M202.5 49.8c.1-.1.3-.1.5 0l3.9 2.2c.1.1.2.2.2.4v4.4c0 .2-.1.3-.2.4l-3.9 2.2c-.1.1-.3.1-.5 0l-3.8-2.2c-.1-.1-.2-.2-.2-.4v-4.4c0-.2.1-.3.2-.4l3.8-2.2z"/></svg>